<?xml version="1.0" encoding="utf-8"?>
<!-- Generator: Adobe Illustrator 16.0.0, SVG Export Plug-In . SVG Version: 6.00 Build 0)  -->
<!DOCTYPE svg PUBLIC "-//W3C//DTD SVG 1.1//EN" "http://www.w3.org/Graphics/SVG/1.1/DTD/svg11.dtd">
<svg version="1.1" id="Layer_1" xmlns="http://www.w3.org/2000/svg" xmlns:xlink="http://www.w3.org/1999/xlink" x="0px" y="0px"
	 width="512px" height="512px" viewBox="0 0 512 512" enable-background="new 0 0 512 512" xml:space="preserve">
<g>
	
		<rect x="17.566" y="236.966" transform="matrix(0.7071 0.7071 -0.7071 0.7071 251.6789 -116.7095)" fill="#E6E873" width="498.309" height="16.964"/>
	
		<rect x="5.871" y="248.662" transform="matrix(0.7071 0.7071 -0.7071 0.7071 256.5229 -105.0146)" fill="#CEDB44" width="498.31" height="16.964"/>
	
		<rect x="-5.825" y="260.357" transform="matrix(0.7071 0.7071 -0.7071 0.7071 261.3676 -93.3189)" fill="#C9C53D" width="498.309" height="16.964"/>
</g>
<g id="XMLID_1_">
	<g>
		<polygon fill="#E2DEB7" points="476.937,479.048 413.512,451.015 448.895,415.632 		"/>
	</g>
	<g>
	</g>
</g>
<g id="XMLID_2_">
	<g>
		<polygon fill="#BFBD9D" points="476.937,479.048 413.512,451.015 431.208,433.319 		"/>
	</g>
	<g>
	</g>
</g>
<polygon fill="#424240" points="467.432,457.554 455.429,469.542 476.937,479.048 "/>
<rect x="58.031" y="47.321" transform="matrix(-0.7071 -0.7071 0.7071 -0.7071 68.7252 173.1525)" fill="#B9B633" width="24.387" height="50.043"/>
<path fill="#CA85B9" d="M43.91,81.414c0,0-14.247-14.246-23.24-23.24c-7.433-7.432,28.855-41.911,34.633-36.132
	c9.616,9.615,23.99,23.989,23.99,23.989L43.91,81.414z"/>
<rect x="49.185" y="68.678" transform="matrix(0.7071 0.7071 -0.7071 0.7071 75.3835 -19.6217)" fill="#A09A35" width="24.386" height="25.021"/>
</svg>
