<svg width="640" height="479.99999999999994" xmlns="http://www.w3.org/2000/svg" xmlns:svg="http://www.w3.org/2000/svg" class="drawing">
 <!-- Created with SVG-edit - http://svg-edit.googlecode.com/ -->
 <defs>
  <linearGradient id="svg_3" spreadMethod="pad">
   <stop stop-color="#46a1fc" offset="0"/>
   <stop stop-color="#b95e03" offset="1"/>
  </linearGradient>
  <linearGradient id="svg_5" spreadMethod="pad" x1="0.50708" y1="0" x2="0.55396" y2="1">
   <stop stop-color="#7abcff" stop-opacity="0.99219" offset="0"/>
   <stop stop-color="#007fff" stop-opacity="0.99609" offset="1"/>
  </linearGradient>
  <linearGradient id="svg_6" spreadMethod="pad" x1="0.50708" y1="0" x2="0.48755" y2="0.41406">
   <stop stop-color="#7abcff" stop-opacity="0.99219" offset="0"/>
   <stop stop-color="#007fff" stop-opacity="0.99609" offset="1"/>
  </linearGradient>
  <linearGradient id="svg_9" x1="0.52661" y1="0.49609" x2="0.55396" y2="0">
   <stop stop-color="#21384f" stop-opacity="0.99609" offset="0"/>
   <stop stop-color="#0f263d" stop-opacity="0.99609" offset="1"/>
  </linearGradient>
  <linearGradient id="svg_10" x1="0.52661" y1="0.49609" x2="0.55396" y2="0">
   <stop stop-color="#344c63" stop-opacity="0.99219" offset="0"/>
   <stop stop-color="#0f263d" stop-opacity="0.99609" offset="1"/>
  </linearGradient>
  <linearGradient id="svg_11" x1="0.50317" y1="1" x2="0.55396" y2="0">
   <stop stop-color="#344c63" stop-opacity="0.99219" offset="0"/>
   <stop stop-color="#0f263d" stop-opacity="0.99609" offset="1"/>
  </linearGradient>
  <linearGradient id="svg_13" x1="0.50317" y1="1" x2="0.55396" y2="0">
   <stop stop-color="#344c63" stop-opacity="0.99219" offset="0"/>
   <stop stop-color="#0f263d" stop-opacity="0.99609" offset="1"/>
  </linearGradient>
  <linearGradient id="svg_62" x1="0.52271" y1="0" x2="0.50708" y2="1">
   <stop stop-color="#ffd800" stop-opacity="0.99609" offset="0"/>
   <stop stop-color="#ffd905" stop-opacity="0.99219" offset="1"/>
  </linearGradient>
  <linearGradient id="svg_63" x1="0.52271" y1="0" x2="0.50708" y2="1">
   <stop stop-color="#ffd800" stop-opacity="0.99609" offset="0"/>
   <stop stop-color="#ffd905" stop-opacity="0.01172" offset="1"/>
  </linearGradient>
 </defs>
 <g>
  <title>base_background</title>
  <rect id="svg_4" height="482.3024" width="642.79398" y="-2.09019" x="-1.62691" stroke-linecap="null" stroke-linejoin="null" stroke-dasharray="null" stroke-width="0" fill="url(#svg_6)" stroke="#000000"/>
 </g>
 <g>
  <title>skyscraper_shadows</title>
  <path fill="#375c82" stroke="#000000" stroke-width="0" stroke-dasharray="null" stroke-linejoin="null" stroke-linecap="null" d="m149,197l9,9l0,146l-12,0l3,-155z" id="svg_42"/>
  <path fill="#375c82" stroke="#000000" stroke-width="0" stroke-dasharray="null" stroke-linejoin="null" stroke-linecap="null" d="m228,261.5l9,9l0,146l-12,0l3,-155z" id="svg_43"/>
  <path fill="#375c82" stroke="#000000" stroke-width="0" stroke-dasharray="null" stroke-linejoin="null" stroke-linecap="null" d="m363,222.5l9,9l0,146l-12,0l3,-155z" id="svg_44"/>
  <path fill="#375c82" stroke-width="0" stroke-dasharray="null" stroke-linejoin="null" stroke-linecap="null" d="m506,160.5l9,11.43871l0,185.56129l-12,0l3,-197z" id="svg_45" stroke="#000000"/>
  <path fill="#375c82" stroke="#000000" stroke-width="0" stroke-dasharray="null" stroke-linejoin="null" stroke-linecap="null" d="m613,90.5l9,9l0,146l-12,0l3,-155z" id="svg_46"/>
 </g>
 <g display="inline">
  <title>skyscrapers</title>
  <path fill="url(#svg_13)" stroke="#000000" stroke-width="0" stroke-dasharray="null" stroke-linejoin="null" stroke-linecap="null" d="m-50,350l83,0l0,-66l58,0l0,-88l58,0l0,155l23,0l0,-90l56,0l0,90l48,0l0,-128l87,0l0,34l59,0l0,-98l84,0l0,198l54,0l0,-267l53,0l0,142l34,0l0,252l-658,-1l-39,-133z" id="svg_12"/>
 </g>
 <g>
  <title>skyscraper_lights</title>
  <rect fill="#375c82" stroke-width="0" stroke-dasharray="null" stroke-linejoin="null" stroke-linecap="null" x="116" y="226" width="25" height="13" id="svg_16" stroke="#000000"/>
  <rect fill="#375c82" stroke="#000000" stroke-width="0" stroke-dasharray="null" stroke-linejoin="null" stroke-linecap="null" x="98" y="246" width="43" height="13" id="svg_17"/>
  <rect fill="#375c82" stroke="#000000" stroke-width="0" stroke-dasharray="null" stroke-linejoin="null" stroke-linecap="null" x="98" y="266" width="43" height="13" id="svg_18"/>
  <rect fill="#375c82" stroke-width="0" stroke-dasharray="null" stroke-linejoin="null" stroke-linecap="null" x="98" y="286" width="32" height="13" id="svg_19" stroke="#000000"/>
  <rect fill="#375c82" stroke="#000000" stroke-width="0" stroke-dasharray="null" stroke-linejoin="null" stroke-linecap="null" x="98" y="306" width="43" height="13" id="svg_20"/>
  <rect fill="#375c82" stroke-width="0" stroke-dasharray="null" stroke-linejoin="null" stroke-linecap="null" x="109" y="326" width="22" height="13" id="svg_21" stroke="#000000"/>
  <rect fill="#375c82" stroke-width="0" stroke-dasharray="null" stroke-linejoin="null" stroke-linecap="null" x="44" y="292" width="14" height="50" id="svg_22" stroke="#000000"/>
  <rect fill="#375c82" stroke-width="0" stroke-dasharray="null" stroke-linejoin="null" stroke-linecap="null" x="68" y="292" width="14" height="35" id="svg_24" stroke="#000000"/>
  <rect fill="#375c82" stroke-width="0" stroke-dasharray="null" stroke-linejoin="null" stroke-linecap="null" x="182" y="271" width="14" height="52" id="svg_25" stroke="#000000"/>
  <rect fill="#375c82" stroke-width="0" stroke-dasharray="null" stroke-linejoin="null" stroke-linecap="null" x="203" y="271" width="14" height="71" id="svg_28" stroke="#000000"/>
  <rect fill="#375c82" stroke="#000000" stroke-width="0" stroke-dasharray="null" stroke-linejoin="null" stroke-linecap="null" x="98" y="206" width="43" height="13" id="svg_15"/>
  <rect fill="#375c82" stroke-width="0" stroke-dasharray="null" stroke-linejoin="null" stroke-linecap="null" x="284.5" y="230.5" width="69" height="13" id="svg_30" stroke="#000000"/>
  <rect fill="#375c82" stroke-width="0" stroke-dasharray="null" stroke-linejoin="null" stroke-linecap="null" x="284.5" y="250.5" width="27" height="13" id="svg_31" stroke="#000000"/>
  <rect fill="#375c82" stroke-width="0" stroke-dasharray="null" stroke-linejoin="null" stroke-linecap="null" x="284.5" y="270.5" width="69" height="13" stroke="#000000" id="svg_32"/>
  <rect fill="#375c82" stroke-width="0" stroke-dasharray="null" stroke-linejoin="null" stroke-linecap="null" x="302.5" y="290.5" width="40" height="13" id="svg_33" stroke="#000000"/>
  <rect fill="#375c82" stroke-width="0" stroke-dasharray="null" stroke-linejoin="null" stroke-linecap="null" x="284.5" y="310.5" width="69" height="13" stroke="#000000" id="svg_34"/>
  <rect fill="#375c82" stroke-width="0" stroke-dasharray="null" stroke-linejoin="null" stroke-linecap="null" x="306.5" y="330.5" width="47" height="13" id="svg_35" stroke="#000000"/>
  <rect fill="#375c82" stroke-width="0" stroke-dasharray="null" stroke-linejoin="null" stroke-linecap="null" x="433" y="170.49999" width="16" height="180" id="svg_36" stroke="#000000"/>
  <rect fill="#375c82" stroke-width="0" stroke-dasharray="null" stroke-linejoin="null" stroke-linecap="null" x="458" y="170.49999" width="16" height="147" id="svg_38" stroke="#000000"/>
  <rect fill="#375c82" stroke-width="0" stroke-dasharray="null" stroke-linejoin="null" stroke-linecap="null" x="482" y="170.49999" width="16" height="180" id="svg_39" stroke="#000000"/>
  <rect fill="#375c82" stroke-width="0" stroke-dasharray="null" stroke-linejoin="null" stroke-linecap="null" x="569" y="101.00001" width="13" height="180" id="svg_40" stroke="#000000"/>
  <rect fill="#375c82" stroke-width="0" stroke-dasharray="null" stroke-linejoin="null" stroke-linecap="null" x="590" y="101.00001" width="13" height="246.99999" id="svg_41" stroke="#000000"/>
 </g>
 <g>
  <title>fore_building_shadow</title>
  <path id="svg_99" fill="#0c2033" stroke="#000000" stroke-width="0" stroke-dasharray="null" stroke-linejoin="null" stroke-linecap="null" d="m45,307.5l9,9l0,146l-12,0l3,-155z"/>
  <path id="svg_100" fill="#0c2033" stroke="#000000" stroke-width="0" stroke-dasharray="null" stroke-linejoin="null" stroke-linecap="null" d="m136,375.5l9,9l0,146l-12,0l3,-155z"/>
  <path id="svg_101" fill="#0c2033" stroke="#000000" stroke-width="0" stroke-dasharray="null" stroke-linejoin="null" stroke-linecap="null" d="m228,305.5l9,9l0,146l-12,0l3,-155z"/>
  <path id="svg_102" fill="#0c2033" stroke="#000000" stroke-width="0" stroke-dasharray="null" stroke-linejoin="null" stroke-linecap="null" d="m319,292.5l9,9l0,146l-12,0l3,-155z"/>
  <path id="svg_103" fill="#0c2033" stroke="#000000" stroke-width="0" stroke-dasharray="null" stroke-linejoin="null" stroke-linecap="null" d="m442,324.5l9,9l0,146l-12,0l3,-155z"/>
  <path id="svg_104" fill="#0c2033" stroke="#000000" stroke-width="0" stroke-dasharray="null" stroke-linejoin="null" stroke-linecap="null" d="m592,321.5l9,9l0,146l-12,0l3,-155z"/>
 </g>
 <g display="inline">
  <title>foreground_buildings</title>
  <path fill="#122b44" stroke-width="0" stroke-dasharray="null" stroke-linejoin="null" stroke-linecap="null" d="m-8.66667,307.80356l54,0l0,108.84103l27,0l0,-40.89401l64.99998,0l0,42.78146l30,0l0,-111.98679l61,0l0,29.56952l26,0l0,-42.78143l65.00003,0l0,125.1987l56,0l0,-93.11261l67,0l0,49.702l81.99997,0l0,-54.10596l68,0l0,51.58939l59,0l0,110.72849l-668,0l8,-175.52979l0.00002,0z" id="svg_47" stroke="#000000"/>
 </g>
 <g>
  <title>building_lights</title>
  <rect id="svg_26" stroke="#000000" height="13" width="37" y="317" x="-1" stroke-linecap="null" stroke-linejoin="null" stroke-dasharray="null" stroke-width="0" fill="#ffd800"/>
  <rect id="svg_27" stroke="#000000" height="13" width="28" y="337" x="8" stroke-linecap="null" stroke-linejoin="null" stroke-dasharray="null" stroke-width="0" fill="#ffd800"/>
  <rect id="svg_29" stroke="#000000" height="13" width="37" y="357" x="-1" stroke-linecap="null" stroke-linejoin="null" stroke-dasharray="null" stroke-width="0" fill="#ffd800"/>
  <rect id="svg_37" stroke="#000000" height="13" width="28" y="377" x="-1" stroke-linecap="null" stroke-linejoin="null" stroke-dasharray="null" stroke-width="0" fill="#ffd800"/>
  <rect id="svg_64" stroke="#000000" height="13" width="20" y="397" x="-1" stroke-linecap="null" stroke-linejoin="null" stroke-dasharray="null" stroke-width="0" fill="#ffd800"/>
  <rect stroke="#000000" id="svg_70" height="13" width="14" y="384.5" x="79.5" stroke-linecap="null" stroke-linejoin="null" stroke-dasharray="null" stroke-width="0" fill="#ffd800"/>
  <rect id="svg_71" stroke="#000000" height="13" width="14" y="384.5" x="98.5" stroke-linecap="null" stroke-linejoin="null" stroke-dasharray="null" stroke-width="0" fill="#ffd800"/>
  <rect id="svg_72" stroke="#000000" height="13" width="14" y="384.5" x="117.5" stroke-linecap="null" stroke-linejoin="null" stroke-dasharray="null" stroke-width="0" fill="#ffd800"/>
  <rect stroke="#000000" id="svg_73" height="13" width="41" y="315" x="177" stroke-linecap="null" stroke-linejoin="null" stroke-dasharray="null" stroke-width="0" fill="#ffd800"/>
  <rect stroke="#000000" id="svg_76" height="13" width="30" y="335" x="188" stroke-linecap="null" stroke-linejoin="null" stroke-dasharray="null" stroke-width="0" fill="#ffd800"/>
  <rect stroke="#000000" id="svg_77" height="13" width="18" y="355" x="182" stroke-linecap="null" stroke-linejoin="null" stroke-dasharray="null" stroke-width="0" fill="#ffd800"/>
  <rect id="svg_78" stroke="#000000" height="13" width="41" y="375" x="177" stroke-linecap="null" stroke-linejoin="null" stroke-dasharray="null" stroke-width="0" fill="#ffd800"/>
  <rect id="svg_79" stroke="#000000" height="13" width="41" y="395" x="177" stroke-linecap="null" stroke-linejoin="null" stroke-dasharray="null" stroke-width="0" fill="#ffd800"/>
  <rect stroke="#000000" id="svg_80" height="13" width="36" y="302.5" x="273.5" stroke-linecap="null" stroke-linejoin="null" stroke-dasharray="null" stroke-width="0" fill="#ffd800"/>
  <rect id="svg_81" stroke="#000000" height="13" width="45" y="322.5" x="264.5" stroke-linecap="null" stroke-linejoin="null" stroke-dasharray="null" stroke-width="0" fill="#ffd800"/>
  <rect stroke="#000000" id="svg_82" height="13" width="29" y="342.5" x="264.5" stroke-linecap="null" stroke-linejoin="null" stroke-dasharray="null" stroke-width="0" fill="#ffd800"/>
  <rect stroke="#000000" id="svg_84" height="13" width="32" y="362.5" x="277.5" stroke-linecap="null" stroke-linejoin="null" stroke-dasharray="null" stroke-width="0" fill="#ffd800"/>
  <rect id="svg_85" stroke="#000000" height="13" width="45" y="382.5" x="264.5" stroke-linecap="null" stroke-linejoin="null" stroke-dasharray="null" stroke-width="0" fill="#ffd800"/>
  <rect stroke="#000000" id="svg_86" height="78" width="13" y="332.5" x="384" stroke-linecap="null" stroke-linejoin="null" stroke-dasharray="null" stroke-width="0" fill="#ffd800"/>
  <rect stroke="#000000" id="svg_89" height="78" width="16" y="331" x="538" stroke-linecap="null" stroke-linejoin="null" stroke-dasharray="null" stroke-width="0" fill="#ffd800"/>
  <rect stroke="#000000" id="svg_90" height="61" width="16" y="348" x="564" stroke-linecap="null" stroke-linejoin="null" stroke-dasharray="null" stroke-width="0" fill="#ffd800"/>
  <rect id="svg_91" stroke="#000000" height="13" width="14" y="383.5" x="601" stroke-linecap="null" stroke-linejoin="null" stroke-dasharray="null" stroke-width="0" fill="#ffd800"/>
  <rect id="svg_92" stroke="#000000" height="13" width="14" y="383.5" x="623" stroke-linecap="null" stroke-linejoin="null" stroke-dasharray="null" stroke-width="0" fill="#ffd800"/>
  <rect id="svg_93" stroke="#000000" height="13" width="14" y="386.5" x="449" stroke-linecap="null" stroke-linejoin="null" stroke-dasharray="null" stroke-width="0" fill="#ffd800"/>
  <rect id="svg_94" stroke="#000000" height="13" width="14" y="386.5" x="469" stroke-linecap="null" stroke-linejoin="null" stroke-dasharray="null" stroke-width="0" fill="#ffd800"/>
  <rect id="svg_95" stroke="#000000" height="13" width="14" y="386.5" x="489" stroke-linecap="null" stroke-linejoin="null" stroke-dasharray="null" stroke-width="0" fill="#ffd800"/>
  <rect stroke="#000000" id="svg_97" height="52" width="13" y="332.5" x="403" stroke-linecap="null" stroke-linejoin="null" stroke-dasharray="null" stroke-width="0" fill="#ffd800"/>
  <rect stroke="#000000" id="svg_98" height="68" width="13" y="332.5" x="422" stroke-linecap="null" stroke-linejoin="null" stroke-dasharray="null" stroke-width="0" fill="#ffd800"/>
 </g>
 <g>
  <title>road</title>
  <rect fill="#4c5b6b" stroke-width="0" stroke-dasharray="null" stroke-linejoin="null" stroke-linecap="null" x="-4" y="448" width="649.33337" height="32" id="svg_48" stroke="#000000"/>
  <rect fill="#e2e2e2" stroke="#000000" stroke-width="0" stroke-dasharray="null" stroke-linejoin="null" stroke-linecap="null" x="588" y="461.33333" width="32" height="4" id="svg_49"/>
  <rect fill="#e2e2e2" stroke="#000000" stroke-width="0" stroke-dasharray="null" stroke-linejoin="null" stroke-linecap="null" x="521.33333" y="461.33333" width="32" height="4" id="svg_50"/>
  <rect fill="#e2e2e2" stroke="#000000" stroke-width="0" stroke-dasharray="null" stroke-linejoin="null" stroke-linecap="null" x="454.66667" y="461.33333" width="32" height="4" id="svg_51"/>
  <rect fill="#e2e2e2" stroke="#000000" stroke-width="0" stroke-dasharray="null" stroke-linejoin="null" stroke-linecap="null" x="388" y="461.33333" width="32" height="4" id="svg_52"/>
  <rect fill="#e2e2e2" stroke="#000000" stroke-width="0" stroke-dasharray="null" stroke-linejoin="null" stroke-linecap="null" x="321.33334" y="461.33333" width="32" height="4" id="svg_53"/>
  <rect fill="#e2e2e2" stroke="#000000" stroke-width="0" stroke-dasharray="null" stroke-linejoin="null" stroke-linecap="null" x="254.66667" y="461.33333" width="32" height="4" id="svg_54"/>
  <rect fill="#e2e2e2" stroke="#000000" stroke-width="0" stroke-dasharray="null" stroke-linejoin="null" stroke-linecap="null" x="188.00001" y="461.33333" width="32" height="4" id="svg_55"/>
  <rect fill="#e2e2e2" stroke="#000000" stroke-width="0" stroke-dasharray="null" stroke-linejoin="null" stroke-linecap="null" x="121.33334" y="461.33333" width="32" height="4" id="svg_56"/>
  <rect fill="#e2e2e2" stroke="#000000" stroke-width="0" stroke-dasharray="null" stroke-linejoin="null" stroke-linecap="null" x="54.66668" y="461.33333" width="32" height="4" id="svg_57"/>
  <rect fill="#e2e2e2" stroke="#000000" stroke-width="0" stroke-dasharray="null" stroke-linejoin="null" stroke-linecap="null" x="-11.99999" y="461.33333" width="32" height="4" id="svg_58"/>
  <rect fill="#6d6b6b" stroke="#000000" stroke-width="0" stroke-dasharray="null" stroke-linejoin="null" stroke-linecap="null" x="-11" y="440" width="662" height="8" id="svg_59"/>
 </g>
 <g>
  <title>lights</title>
  <path id="svg_60" fill="#4c4c4c" stroke="#000000" stroke-width="0" stroke-dasharray="null" stroke-linejoin="null" stroke-linecap="null" d="m33,446l0,-35l10,-11l23,0l0,7l-16,0c0,0 -9,9 -9,10c0,1 0,29 0,29"/>
  <path id="svg_61" fill="url(#svg_63)" stroke-width="0" stroke-dasharray="null" stroke-linejoin="null" stroke-linecap="null" d="m63.48,407l-38.48,55l74,0l-35.52,-55z" stroke="#000000"/>
  <path id="svg_1" fill="url(#svg_63)" stroke-width="0" stroke-dasharray="null" stroke-linejoin="null" stroke-linecap="null" d="m462.48004,407l-38.48004,55l74,0l-35.51996,-55z" stroke="#000000"/>
  <path id="svg_2" fill="#4c4c4c" stroke="#000000" stroke-width="0" stroke-dasharray="null" stroke-linejoin="null" stroke-linecap="null" d="m432,445l0,-35l10,-11l23,0l0,7l-16,0c0,0 -9,9 -9,10c0,1 0,29 0,29"/>
 </g>
</svg>